Coordinates
version=1
nRows=4
nColumns=63
inDegrees=yes

Units are S.I. units (second, meters, Newtons, ...)
If the header above contains a line with 'inDegrees', this indicates whether rotational values are in degrees (yes) or radians (no).

endheader
time	pelvis_tilt	pelvis_list	pelvis_rotation	pelvis_tx	pelvis_ty	pelvis_tz	hip_flexion_r	hip_adduction_r	hip_rotation_r	knee_angle_r	knee_angle_r_beta	ankle_angle_r	subtalar_angle_r	mtp_angle_r	hip_flexion_l	hip_adduction_l	hip_rotation_l	knee_angle_l	knee_angle_l_beta	ankle_angle_l	subtalar_angle_l	mtp_angle_l	L5_S1_Flex_Ext	L5_S1_Lat_Bending	L5_S1_axial_rotation	L4_L5_Flex_Ext	L4_L5_Lat_Bending	L4_L5_axial_rotation	L3_L4_Flex_Ext	L3_L4_Lat_Bending	L3_L4_axial_rotation	L2_L3_Flex_Ext	L2_L3_Lat_Bending	L2_L3_axial_rotation	L1_L2_Flex_Ext	L1_L2_Lat_Bending	L1_L2_axial_rotation	L1_T12_Flex_Ext	L1_T12_Lat_Bending	L1_T12_axial_rotation	Abs_r3	Abs_r2	Abs_r1	Abs_t1	Abs_t2	neck_flexion	neck_bending	neck_rotation	arm_flex_r	arm_add_r	arm_rot_r	elbow_flex_r	pro_sup_r	wrist_flex_r	wrist_dev_r	arm_flex_l	arm_add_l	arm_rot_l	elbow_flex_l	pro_sup_l	wrist_flex_l	wrist_dev_l
      0.00000000	      1.06070538	     -5.32162084	    104.37395707	      0.10673545	      0.98689020	      0.40176780	     -3.72095799	      3.15664419	     -1.31330554	      0.34300654	      0.00598659	     13.16902702	    -10.20478113	      0.00000000	      1.07464991	     -3.12996177	     -7.07946991	      6.92469400	      0.12085871	     29.41938035	     12.58979692	      0.00000000	     -0.12142008	      0.25792339	      0.49126980	     -0.22548924	      0.34303811	      0.52197417	     -0.19948106	      0.62711493	      0.52197417	     -0.13877101	      0.62711493	      0.42986108	     -0.11275069	      0.52595737	      0.39915672	     -0.06937944	      0.39952333	      0.36845235	     -0.86729152	      2.91768095	      2.73229527	      0.00000000	      0.00000000	     25.51546810	      0.38061019	      6.71077643	      1.32785075	    -17.97000757	     73.81704952	     18.34919803	     28.29099743	     -4.44418244	    -14.78564464	     10.26399926	    -16.41781338	     73.84641663	     26.91610515	     86.52824273	     -7.87917763	     -4.41971621
      0.01694915	      1.00158596	     -4.96842014	    103.42552834	      0.10718381	      0.98725086	      0.39966423	     -4.07775949	      3.06582650	     -0.76819202	      0.32015427	      0.00558775	     13.47819618	     -8.96676921	      0.00000000	     -0.18949966	     -3.02198341	     -7.21052756	      5.66756157	      0.09891761	     28.52753479	     11.75316800	      0.00000000	     -0.14080218	      0.27913564	      0.57914501	     -0.26148373	      0.37125040	      0.61534158	     -0.23132390	      0.67869039	      0.61534158	     -0.16092281	      0.67869039	      0.50675189	     -0.13074890	      0.56921339	      0.47055532	     -0.08045437	      0.43238110	      0.43435876	     -1.00573589	      3.15763817	      3.22103081	      0.00000000	      0.00000000	     24.97628700	      0.54298071	      8.01892867	      1.34807690	    -17.87051843	     74.76002315	     18.33385810	     30.25082910	     -6.51856136	    -15.00751900	      9.89895136	    -16.49457365	     74.41472852	     26.79188972	     86.58410708	     -7.72495628	     -5.83457318
      0.03389831	      1.00795119	     -4.72587923	    103.09692263	      0.10730129	      0.98752257	      0.39839986	     -4.31166463	      3.08712692	     -0.42224905	      0.30055959	      0.00524575	     13.61235956	     -8.76912702	      0.00000000	     -0.86131302	     -3.05356389	     -7.60559515	      5.11433477	      0.08926198	     27.76339438	     11.61314626	      0.00000000	     -0.14792592	      0.28725710	      0.58310707	     -0.27471322	      0.38205194	      0.61955126	     -0.24302749	      0.69843691	      0.61955126	     -0.16906453	      0.69843691	      0.51021869	     -0.13736401	      0.58577468	      0.47377450	     -0.08452487	      0.44496125	      0.43733030	     -1.05662003	      3.24950977	      3.24306660	      0.00000000	      0.00000000	     24.40575002	      0.69805998	      8.38133791	      1.63266118	    -18.08906710	     75.53633022	     18.92295670	     31.33546160	     -7.11722736	    -15.73521980	      9.63557008	    -16.85121713	     74.41116949	     27.31016345	     86.54838511	     -7.48105447	     -6.23622008
      0.05084746	      0.76187763	     -4.55567570	    102.03837938	      0.10887567	      0.98789401	      0.39685188	     -4.49732127	      2.80292773	      0.26309847	      0.29669774	      0.00517835	     14.04302186	     -8.25937863	      0.00000000	     -1.91402562	     -2.75437184	     -8.23960316	      3.98299975	      0.06951646	     26.94301305	     11.27704653	      0.00000000	     -0.16709870	      0.25518185	      0.68362706	     -0.31031900	      0.33939186	      0.72635375	     -0.27452646	      0.62044915	      0.72635375	     -0.19097711	      0.62044915	      0.59817368	     -0.15516785	      0.52036683	      0.55544699	     -0.09548020	      0.39527669	      0.51272030	     -1.19356931	      2.88666814	      3.80212864	      0.00000000	      0.00000000	     24.26879359	      1.40536161	      9.05158725	      2.50983754	    -18.11808202	     77.77378336	     19.29908393	     35.35185664	    -10.06973396	    -17.22314243	      9.15327340	    -17.18842877	     73.19022507	     27.65924654	     86.17682489	     -6.94279134	     -6.14008215
